<svg id="Layer_1" data-name="Layer 1" xmlns="http://www.w3.org/2000/svg" viewBox="0 0 529.14 386.49"><defs><style>.cls-1{fill:#ff211b;}</style></defs><title>icon-1</title><path class="cls-1" d="M860.83,932.74c26.84-16.28,37.29-36.54,30.86-57.7a39.57,39.57,0,0,0-39.16-27.8c-18,.67-33.17,12.63-36.84,29.08-6.09,27.33,1.47,41.45,29.9,55.83-9.47,3.35-22,.12-32.8-9.83-5.12-4.7-10.2-10.48-12.64-16.8-3.37-8.7-8.48-10.77-17-10.22-10.45.66-21,.23-31.46.12-19.19-.2-31.4-10.95-32.14-30-.81-21-.77-42,.17-62.91.22-4.93,5.54-9.63,8.94-15.13-.82-12.27-2.34-26.36-2.61-40.47q-1.49-78.64-2.25-157.32c-.26-27.17,14.25-41.25,41.67-41.27q98.91,0,197.81,0c24.34,0,39.72,14.7,39.28,38.94-1.11,62.16-2.35,124.33-4.78,186.44-.35,9.07-5.79,19.56-12.18,26.19-4.22,4.38-14.35,3.86-21.87,4.1-72.26,2.27-144.52,4.22-216.79,6.29-2.2.06-4.4.37-8.17.7,0,17.7-.57,35.15.52,52.48.21,3.18,7,8.17,11.09,8.48,13.75,1.07,27.63.41,41.36.41,9.57-28.5,28-45.7,58.08-47.17,27.1-1.33,49.93,16.49,57.79,42.65.93,3.11,4.48,7.72,6.88,7.75,33.25.52,66.51.35,100.24.35,0-16.61.25-35.56,0-54.5-1-61.41-2.26-122.81-3.08-184.22-.33-24.43,11.36-35.88,35.61-36,28.1-.1,56.2.3,84.29-.14,16.33-.26,28.39,5.36,37.88,19.26,23.23,34,47.91,67,70.91,101.17,5,7.47,7.67,18,7.76,27.12.35,33.32-1,66.66-1.43,100-.38,29.13-14.4,43.28-43.19,41.22-9.9-.71-14.1,1.47-17.26,11.34-6.71,20.92-24.11,32.26-42.8,31.74,7.5-7.95,17.17-16,24-26,7.29-10.72,6.7-23.49,1.51-35.57-7.43-17.29-23.2-26.07-42.68-23.9-16.48,1.84-30.52,16.35-33.48,34.61-3.36,20.66,7.81,37.85,32.38,52.72-6.06-1.28-12.37-1.89-18.15-4-12.13-4.36-22.92-12.23-26-24.6-4.11-16.52-13.76-16.8-27.66-16.23-44.14,1.79-88.33,2.19-132.51,2.85-7.09.1-11,1.66-13.74,9.31C899.78,922.45,882.54,933.58,860.83,932.74ZM893,566c1.17,14.17,2.42,26.82,3.21,39.51.75,11.9-1.66,14.48-14,14.71q-23,.4-46.06,0c-12.63-.22-14.82-2.74-14.12-15.79.68-12.52,1.79-25,2.78-38.47-22.56,0-43.85-.21-65.14.08-13.49.19-18.77,5.87-19,19.41-.31,21.72-.5,43.45-.77,65.17-.48,39.7-1.13,79.4-1.39,119.11-.1,15.31,5.36,20.81,19.58,21.16,10.86.26,21.72.3,32.58.55,53.91,1.29,107.81,2.93,161.73,3.76,19,.29,28.56-10.09,28.27-29.3-.92-61.05-2.21-122.09-3.38-183.13-.21-10.46-6.4-16.31-16.08-16.59C938.89,565.6,916.46,566,893,566ZM1187.69,879.7c4.72-.23,8.81-.44,12.89-.62,23.21-1,29.37-7.1,29-30-.53-35.21-1.18-70.42-2.45-105.6a33.52,33.52,0,0,0-6.1-17.32q-35.46-49.21-72.08-97.58c-2.87-3.78-8.93-7.14-13.58-7.24-29.21-.65-58.44-.43-87.65-.28-12.52.07-16,3.75-16.21,16q-2.08,114-4.17,228.09c-.07,4,0,7.93,0,13.17h43.41c7.45-34.62,28.21-53.49,58.85-53.37C1159.37,825.09,1180.21,844.36,1187.69,879.7ZM882.45,569H841c1,11.49,1.94,22.15,2.87,32.73h35.87C880.62,590.76,881.49,580.46,882.45,569Z" transform="translate(-719.01 -548.26)"/><path class="cls-1" d="M850.21,868.17c5.89,6.55,12.48,10.69,12.75,15.2.21,3.53-7.57,10.68-11.53,10.5-4.67-.22-11.24-5.91-12.74-10.59C837.76,880.4,844.76,875,850.21,868.17Z" transform="translate(-719.01 -548.26)"/><path class="cls-1" d="M1147.29,883.82c-8.28,4.92-13.4,10.36-18.24,10.12-4.26-.22-8.21-6.78-12.29-10.54,4.52-3.69,8.78-9.8,13.65-10.32C1134.6,872.63,1139.48,878.54,1147.29,883.82Z" transform="translate(-719.01 -548.26)"/><path class="cls-1" d="M1061.82,653.86c2.59,18.65,5.51,37.26,7.68,56,1.77,15.25,1.43,14.47,17.11,15.57,26.81,1.88,53.53,4.84,80.28,7.54,3.51.35,6.91,1.84,13.44,3.65-39.29,9.1-75.9,12.75-113,9.45-10.55-.94-17.28-9.47-16.47-20.53,1.74-23.8,4.35-47.54,6.6-71.3Z" transform="translate(-719.01 -548.26)"/></svg>