<?xml version="1.0" encoding="UTF-8" standalone="no"?>
<!-- Created with Inkscape (http://www.inkscape.org/) -->

<svg
   version="1.1"
   id="svg316"
   xml:space="preserve"
   width="666.66669"
   height="666.66669"
   viewBox="0 0 666.66669 666.66669"
   sodipodi:docname="chair-table-computer.svg"
   inkscape:version="1.1 (c68e22c387, 2021-05-23)"
   xmlns:inkscape="http://www.inkscape.org/namespaces/inkscape"
   xmlns:sodipodi="http://sodipodi.sourceforge.net/DTD/sodipodi-0.dtd"
   xmlns="http://www.w3.org/2000/svg"
   xmlns:svg="http://www.w3.org/2000/svg"><defs
     id="defs320"><clipPath
       clipPathUnits="userSpaceOnUse"
       id="clipPath330"><path
         d="M 0,500 H 500 V 0 H 0 Z"
         id="path328" /></clipPath></defs><sodipodi:namedview
     id="namedview318"
     pagecolor="#ffffff"
     bordercolor="#666666"
     borderopacity="1.0"
     inkscape:pageshadow="2"
     inkscape:pageopacity="0.0"
     inkscape:pagecheckerboard="0"
     showgrid="false"
     inkscape:zoom="0.74249998"
     inkscape:cx="333.33334"
     inkscape:cy="333.33334"
     inkscape:window-width="1294"
     inkscape:window-height="704"
     inkscape:window-x="0"
     inkscape:window-y="0"
     inkscape:window-maximized="1"
     inkscape:current-layer="g322" /><g
     id="g322"
     inkscape:groupmode="layer"
     inkscape:label="business-growth-happy-publicdomainvectors.org"
     transform="matrix(1.3333333,0,0,-1.3333333,0,666.66667)"><path
       d="m 201.296,268.137 c 20.114,0 36.518,3.327 36.518,7.407 0,4.08 -16.404,7.408 -36.518,7.408 -20.113,0 -36.519,-3.328 -36.519,-7.408 0,-4.08 16.406,-7.407 36.519,-7.407"
       style="fill:#4d4441;fill-opacity:1;fill-rule:evenodd;stroke:none"
       id="path382" /><path
       d="M 175.454,278.157 H 219.4 v 41.244 h -43.946 z"
       style="fill:#4d4441;fill-opacity:1;fill-rule:evenodd;stroke:none"
       id="path384" /><path
       d="m 131.797,382.99 h 121.775 c 2.215,0 4.404,-1.81 4.868,-4.024 l 17.518,-83.405 c 0.465,-2.213 -0.965,-4.023 -3.179,-4.023 H 151.004 c -2.213,0 -4.403,1.81 -4.868,4.023 l -17.517,83.405 c -0.465,2.214 0.965,4.024 3.178,4.024"
       style="fill:#b5a7a3;fill-opacity:1;fill-rule:evenodd;stroke:none"
       id="path392" /><path
       d="m 241.392,58.498 c 129.023,0 234.256,2.988 234.256,6.654 0,3.664 -105.233,6.653 -234.256,6.653 -129.025,0 -234.259,-2.989 -234.259,-6.653 0,-3.666 105.234,-6.654 234.259,-6.654"
       style="fill:#b0752e;fill-opacity:1;fill-rule:evenodd;stroke:none"
       id="path394" /><path
       d="m 299.501,65.152 h 127.92 v 199.697 h -127.92 z"
       style="fill:#b0752e;fill-opacity:1;fill-rule:evenodd;stroke:none"
       id="path396" /><path
       d="m 422.16,65.15 h 10.522 V 264.849 H 422.16 Z"
       style="fill:#b0752e;fill-opacity:1;fill-rule:evenodd;stroke:none"
       id="path398" /><path
       d="M 42.425,264.85 H 446.03 v 13.308 H 42.425 Z"
       style="fill:#fab870;fill-opacity:1;fill-rule:evenodd;stroke:none"
       id="path400" /><path
       d="m 389.479,325.126 v 0 c 20.118,0 32.488,-16.458 27.492,-36.575 l -7.56,-30.44 c -2.114,-8.509 -10.807,-15.474 -19.316,-15.474 h -42.203 c -8.512,0 -13.745,6.965 -11.632,15.474 l 7.559,30.44 c 4.997,20.117 25.543,36.575 45.66,36.575"
       style="fill:#ff5e52;fill-opacity:1;fill-rule:evenodd;stroke:none"
       id="path416" /><path
       d="m 398.145,319.401 h 0.001 c 20.116,0 32.487,-16.459 27.491,-36.575 l -7.56,-30.441 c -2.114,-8.51 -10.806,-15.473 -19.318,-15.473 h -42.202 c -8.511,0 -13.745,6.963 -11.631,15.473 l 7.559,30.441 c 4.996,20.116 25.543,36.575 45.66,36.575"
       style="fill:#4d4441;fill-opacity:1;fill-rule:evenodd;stroke:none"
       id="path418" /><path
       d="M 284.49597,186.623 H 388.186 v 13.051 H 284.49597 Z"
       style="fill:#4d4441;fill-opacity:1;fill-rule:evenodd;stroke:none;stroke-width:1.11314"
       id="path420" /><path
       d="m 400.971,270.336 h 0.002 c 8.297,0 13.188,-6.789 10.867,-15.086 l -17.135,-61.279 c -2.321,-8.297 -11.009,-15.086 -19.307,-15.086 -8.297,0 -13.188,6.789 -10.869,15.086 l 17.137,61.279 c 2.319,8.297 11.007,15.086 19.305,15.086"
       style="fill:#332d2a;fill-opacity:1;fill-rule:evenodd;stroke:none"
       id="path422" /><path
       d="m 332.651,173.568 h 27.386 v 13.055 h -27.386 z"
       style="fill:#332d2a;fill-opacity:1;fill-rule:evenodd;stroke:none"
       id="path424" /><path
       d="m 339.071,142.365 h 14.546 v 31.203 h -14.546 z"
       style="fill:#d6cbc7;fill-opacity:1;fill-rule:evenodd;stroke:none"
       id="path426" /><path
       d="M 334.987,105.074 H 357.7 v 40.695 h -22.713 z"
       style="fill:#332d2a;fill-opacity:1;fill-rule:evenodd;stroke:none"
       id="path428" /><path
       d="M 339.071,113.74 276.34,81.553 281.137,74.9 340.403,87.434 V 73.197 h 11.882 v 14.237 l 59.266,-12.534 4.797,6.653 -62.731,32.187 -7.273,-2.168 z"
       style="fill:#332d2a;fill-opacity:1;fill-rule:evenodd;stroke:none"
       id="path430" /><path
       d="m 281.496,78.457 c 3.675,0 7.267,-2.978 8.022,-6.652 0.754,-3.674 -1.612,-6.653 -5.286,-6.653 -3.675,0 -7.267,2.979 -8.022,6.653 -0.755,3.674 1.612,6.652 5.286,6.652"
       style="fill:#332d2a;fill-opacity:1;fill-rule:evenodd;stroke:none"
       id="path432" /><path
       d="m 288.29,78.457 c 3.675,0 7.267,-2.978 8.023,-6.652 0.755,-3.674 -1.612,-6.653 -5.288,-6.653 -3.673,0 -7.264,2.979 -8.02,6.653 -0.756,3.674 1.611,6.652 5.285,6.652"
       style="fill:#332d2a;fill-opacity:1;fill-rule:evenodd;stroke:none"
       id="path434" /><path
       d="m 405.443,78.457 c 3.675,0 7.267,-2.978 8.023,-6.652 0.755,-3.674 -1.612,-6.653 -5.286,-6.653 -3.676,0 -7.267,2.979 -8.023,6.653 -0.755,3.674 1.613,6.652 5.286,6.652"
       style="fill:#332d2a;fill-opacity:1;fill-rule:evenodd;stroke:none"
       id="path436" /><path
       d="m 412.237,78.457 c 3.676,0 7.267,-2.978 8.023,-6.652 0.756,-3.674 -1.612,-6.653 -5.286,-6.653 -3.675,0 -7.266,2.979 -8.022,6.653 -0.756,3.674 1.611,6.652 5.285,6.652"
       style="fill:#332d2a;fill-opacity:1;fill-rule:evenodd;stroke:none"
       id="path438" /><path
       d="m 345.084,78.457 c 3.675,0 7.267,-2.978 8.021,-6.652 0.756,-3.674 -1.611,-6.653 -5.286,-6.653 -3.674,0 -7.265,2.979 -8.021,6.653 -0.756,3.674 1.612,6.652 5.286,6.652"
       style="fill:#332d2a;fill-opacity:1;fill-rule:evenodd;stroke:none"
       id="path440" /><path
       d="m 351.878,78.457 c 3.676,0 7.267,-2.978 8.022,-6.652 0.756,-3.674 -1.611,-6.653 -5.287,-6.653 -3.674,0 -7.264,2.979 -8.02,6.653 -0.756,3.674 1.611,6.652 5.285,6.652"
       style="fill:#332d2a;fill-opacity:1;fill-rule:evenodd;stroke:none"
       id="path442" /><path
       d="M 50.42,65.152 H 178.341 V 264.849 H 50.42 Z"
       style="fill:#dc944a;fill-opacity:1;fill-rule:evenodd;stroke:none"
       id="path444" /><path
       d="m 173.081,65.15 h 10.522 v 199.699 h -10.522 z"
       style="fill:#e3a75f;fill-opacity:1;fill-rule:evenodd;stroke:none"
       id="path446" /><path
       d="m 135.51,385.929 h 121.775 c 2.215,0 4.403,-1.809 4.869,-4.023 L 279.671,298.5 c 0.465,-2.212 -0.964,-4.022 -3.178,-4.022 H 154.717 c -2.213,0 -4.404,1.81 -4.868,4.022 l -17.517,83.406 c -0.465,2.214 0.965,4.023 3.178,4.023"
       style="fill:#4d4441;fill-opacity:1;fill-rule:evenodd;stroke:none"
       id="path448" /><path
       d="M 138.434,380.291 H 256.731 L 273.57,300.117 H 155.271 Z"
       style="fill:#bad526;fill-opacity:1;fill-rule:evenodd;stroke:none"
       id="path450" /><path
       d="m 158.431,334.845 c -0.29,0.279 -0.299,0.74 -0.019,1.03 0.279,0.291 0.741,0.3 1.031,0.021 l 15.872,-15.346 16.816,26.812 18.792,-11.803 8.243,10.277 12.21,-4.739 15.526,23.916 c 0.22,0.337 0.672,0.433 1.009,0.214 0.337,-0.219 0.434,-0.671 0.214,-1.008 l -16.171,-24.909 -12.319,4.781 -8.388,-10.458 -18.655,11.719 -16.998,-27.1 z"
       style="fill:#eff5cc;fill-opacity:1;fill-rule:evenodd;stroke:none"
       id="path454" /><path
       d="m 191.738,349.916 c 1.965,0 3.837,-1.594 4.182,-3.56 0.345,-1.965 -0.97,-3.558 -2.936,-3.558 -1.965,0 -3.838,1.593 -4.182,3.558 -0.345,1.966 0.97,3.56 2.936,3.56 m 18.723,-11.761 c 1.966,0 3.838,-1.593 4.183,-3.559 0.343,-1.966 -0.97,-3.559 -2.936,-3.559 -1.965,0 -3.838,1.593 -4.182,3.559 -0.345,1.966 0.969,3.559 2.935,3.559 m 8.316,10.368 c 1.965,0 3.838,-1.593 4.182,-3.559 0.345,-1.965 -0.97,-3.559 -2.936,-3.559 -1.964,0 -3.837,1.594 -4.182,3.559 -0.344,1.966 0.97,3.559 2.936,3.559 m 12.265,-4.761 c 1.965,0 3.838,-1.593 4.182,-3.558 0.345,-1.966 -0.969,-3.559 -2.935,-3.559 -1.966,0 -3.838,1.593 -4.182,3.559 -0.345,1.965 0.969,3.558 2.935,3.558 M 174.831,322.96 c 1.965,0 3.838,-1.593 4.182,-3.559 0.344,-1.965 -0.969,-3.559 -2.935,-3.559 -1.966,0 -3.838,1.594 -4.182,3.559 -0.345,1.966 0.969,3.559 2.935,3.559"
       style="fill:#eff5cc;fill-opacity:1;fill-rule:evenodd;stroke:none"
       id="path456" /><path
       d="m 244.316,364.578 4.352,-2.94 1.044,6.383 z"
       style="fill:#eff5cc;fill-opacity:1;fill-rule:evenodd;stroke:none"
       id="path458" /></g></svg>
